<svg width="40" height="40" viewBox="0 0 40 40" fill="none" xmlns="http://www.w3.org/2000/svg">
    <!-- 背景 -->
    <rect width="40" height="40" rx="8" fill="#2F2F2F"/>

    <!-- 左尖括号 -->
    <path d="M12 13L6 20L12 27" stroke="#F2C94C" stroke-width="3" stroke-linecap="round" stroke-linejoin="round"/>

    <!-- 右尖括号 -->
    <path d="M28 13L34 20L28 27" stroke="#F2C94C" stroke-width="3" stroke-linecap="round" stroke-linejoin="round"/>

    <!-- 齿轮 -->
    <path d="M25.5 27.5C26.0523 27.5 26.5 27.9477 26.5 28.5V29.3C26.5 29.421 26.5216 29.5405 26.5637 29.6533L27.0283 30.9277C27.2038 31.414 27.586 31.7962 28.0723 31.9717L29.3467 32.4363C29.4595 32.4784 29.579 32.5 29.7 32.5H30.5C31.0523 32.5 31.5 32.9477 31.5 33.5V34.5C31.5 35.0523 31.0523 35.5 30.5 35.5H29.7C29.579 35.5 29.4595 35.5216 29.3467 35.5637L28.0723 36.0283C27.586 36.2038 27.2038 36.586 27.0283 37.0723L26.5637 38.3467C26.5216 38.4595 26.5 38.579 26.5 38.7V39.5C26.5 40.0523 26.0523 40.5 25.5 40.5H24.5C23.9477 40.5 23.5 40.0523 23.5 39.5V38.7C23.5 38.579 23.4784 38.4595 23.4363 38.3467L22.9717 37.0723C22.7962 36.586 22.414 36.2038 21.9277 36.0283L20.6533 35.5637C20.5405 35.5216 20.421 35.5 20.3 35.5H19.5C18.9477 35.5 18.5 35.0523 18.5 34.5V33.5C18.5 32.9477 18.9477 32.5 19.5 32.5H20.3C20.421 32.5 20.5405 32.4784 20.6533 32.4363L21.9277 31.9717C22.414 31.7962 22.7962 31.414 22.9717 30.9277L23.4363 29.6533C23.4784 29.5405 23.5 29.421 23.5 29.3V28.5C23.5 27.9477 23.9477 27.5 24.5 27.5H25.5Z"
          fill="#FFFFFF" transform="scale(0.7) translate(14, 9)"/>
</svg>
